<svg width="292" height="22" viewBox="0 0 292 22" fill="none" xmlns="http://www.w3.org/2000/svg">
<path d="M0.828125 11.7074V8.7074L12.8281 3.42331V6.87501L4.61222 10.1733L4.72301 9.99433V10.4205L4.61222 10.2415L12.8281 13.5398V16.9915L0.828125 11.7074Z" fill="#F8FAFC"/>
<path d="M22.6889 18.8239H16.5014V1.36933H22.7401C24.4957 1.36933 26.0071 1.71876 27.2741 2.41763C28.5412 3.11081 29.5156 4.10797 30.1974 5.4091C30.8849 6.71024 31.2287 8.26706 31.2287 10.0796C31.2287 11.8977 30.8849 13.4602 30.1974 14.7671C29.5156 16.0739 28.5355 17.0767 27.2571 17.7756C25.9844 18.4744 24.4616 18.8239 22.6889 18.8239ZM20.1918 15.6619H22.5355C23.6264 15.6619 24.544 15.4688 25.2884 15.0824C26.0384 14.6904 26.6009 14.0852 26.9759 13.2671C27.3565 12.4432 27.5469 11.3807 27.5469 10.0796C27.5469 8.78978 27.3565 7.73581 26.9759 6.91763C26.6009 6.09944 26.0412 5.49717 25.2969 5.11081C24.5526 4.72444 23.6349 4.53126 22.544 4.53126H20.1918V15.6619Z" fill="#F8FAFC"/>
<path d="M39.8601 19.0796C38.5135 19.0796 37.3544 18.8068 36.3828 18.2614C35.4169 17.7102 34.6726 16.9318 34.1499 15.9261C33.6271 14.9148 33.3658 13.7188 33.3658 12.3381C33.3658 10.9915 33.6271 9.80967 34.1499 8.79263C34.6726 7.77558 35.4084 6.98297 36.3572 6.41478C37.3118 5.8466 38.4311 5.56251 39.7152 5.56251C40.5788 5.56251 41.3828 5.70172 42.1271 5.98013C42.8771 6.25285 43.5305 6.66478 44.0874 7.21592C44.6499 7.76706 45.0874 8.46024 45.3999 9.29547C45.7124 10.125 45.8686 11.0966 45.8686 12.2102V13.2074H34.8146V10.9574H42.451C42.451 10.4347 42.3374 9.9716 42.1101 9.56819C41.8828 9.16478 41.5675 8.84944 41.1641 8.62217C40.7663 8.38922 40.3033 8.27274 39.7749 8.27274C39.2237 8.27274 38.7351 8.40058 38.3089 8.65626C37.8885 8.90626 37.5589 9.24433 37.3203 9.67047C37.0817 10.0909 36.9595 10.5597 36.9538 11.0767V13.2159C36.9538 13.8636 37.0732 14.4233 37.3118 14.8949C37.5561 15.3665 37.8999 15.7301 38.343 15.9858C38.7862 16.2415 39.3118 16.3693 39.9197 16.3693C40.3232 16.3693 40.6925 16.3125 41.0277 16.1989C41.3629 16.0852 41.6499 15.9148 41.8885 15.6875C42.1271 15.4602 42.3089 15.1818 42.4339 14.8523L45.7919 15.0739C45.6214 15.8807 45.272 16.5852 44.7436 17.1875C44.2209 17.7841 43.5447 18.25 42.7152 18.5852C41.8913 18.9148 40.9396 19.0796 39.8601 19.0796Z" fill="#F8FAFC"/>
<path d="M60.0909 5.73297L55.5142 18.8239H51.4233L46.8466 5.73297H50.6818L53.4006 15.0994H53.5369L56.2472 5.73297H60.0909Z" fill="#F8FAFC"/>
<path d="M74.5604 1.36933H78.2081V13.5398C78.2081 14.6648 77.9553 15.6421 77.4496 16.4716C76.9496 17.3011 76.2535 17.9404 75.3615 18.3892C74.4695 18.8381 73.4325 19.0625 72.2507 19.0625C71.1996 19.0625 70.245 18.8779 69.3871 18.5085C68.5348 18.1335 67.8587 17.5654 67.3587 16.804C66.8587 16.0369 66.6115 15.0739 66.6172 13.9148H70.2905C70.3018 14.375 70.3956 14.7699 70.5717 15.0994C70.7535 15.4233 71.0007 15.6733 71.3132 15.8494C71.6314 16.0199 72.0064 16.1051 72.4382 16.1051C72.8928 16.1051 73.2763 16.0085 73.5888 15.8154C73.907 15.6165 74.1484 15.3267 74.3132 14.946C74.478 14.5654 74.5604 14.0966 74.5604 13.5398V1.36933Z" fill="#F8FAFC"/>
<path d="M87.157 19.0796C85.8104 19.0796 84.6513 18.8068 83.6797 18.2614C82.7138 17.7102 81.9695 16.9318 81.4467 15.9261C80.924 14.9148 80.6626 13.7188 80.6626 12.3381C80.6626 10.9915 80.924 9.80967 81.4467 8.79263C81.9695 7.77558 82.7053 6.98297 83.6541 6.41478C84.6087 5.8466 85.728 5.56251 87.0121 5.56251C87.8757 5.56251 88.6797 5.70172 89.424 5.98013C90.174 6.25285 90.8274 6.66478 91.3842 7.21592C91.9467 7.76706 92.3842 8.46024 92.6967 9.29547C93.0092 10.125 93.1655 11.0966 93.1655 12.2102V13.2074H82.1115V10.9574H89.7479C89.7479 10.4347 89.6342 9.9716 89.407 9.56819C89.1797 9.16478 88.8643 8.84944 88.4609 8.62217C88.0632 8.38922 87.6001 8.27274 87.0717 8.27274C86.5206 8.27274 86.032 8.40058 85.6058 8.65626C85.1854 8.90626 84.8558 9.24433 84.6172 9.67047C84.3786 10.0909 84.2564 10.5597 84.2507 11.0767V13.2159C84.2507 13.8636 84.37 14.4233 84.6087 14.8949C84.853 15.3665 85.1967 15.7301 85.6399 15.9858C86.0831 16.2415 86.6087 16.3693 87.2166 16.3693C87.62 16.3693 87.9894 16.3125 88.3246 16.1989C88.6598 16.0852 88.9467 15.9148 89.1854 15.6875C89.424 15.4602 89.6058 15.1818 89.7308 14.8523L93.0888 15.0739C92.9183 15.8807 92.5689 16.5852 92.0405 17.1875C91.5178 17.7841 90.8416 18.25 90.0121 18.5852C89.1882 18.9148 88.2365 19.0796 87.157 19.0796Z" fill="#F8FAFC"/>
<path d="M102.575 5.73297V8.46024H94.495V5.73297H102.575ZM96.3445 18.8239V4.78694C96.3445 3.83808 96.5291 3.05115 96.8984 2.42615C97.2734 1.80115 97.7848 1.3324 98.4325 1.0199C99.0803 0.707397 99.8161 0.551147 100.64 0.551147C101.197 0.551147 101.705 0.593761 102.165 0.678989C102.631 0.764216 102.978 0.840921 103.205 0.909103L102.558 3.63638C102.415 3.59092 102.239 3.54831 102.029 3.50853C101.825 3.46876 101.614 3.44888 101.398 3.44888C100.864 3.44888 100.492 3.57388 100.282 3.82388C100.072 4.06819 99.9666 4.41194 99.9666 4.85513V18.8239H96.3445Z" fill="#F8FAFC"/>
<path d="M111.832 5.73297V8.46024H103.753V5.73297H111.832ZM105.602 18.8239V4.78694C105.602 3.83808 105.787 3.05115 106.156 2.42615C106.531 1.80115 107.043 1.3324 107.69 1.0199C108.338 0.707397 109.074 0.551147 109.898 0.551147C110.455 0.551147 110.963 0.593761 111.423 0.678989C111.889 0.764216 112.236 0.840921 112.463 0.909103L111.815 3.63638C111.673 3.59092 111.497 3.54831 111.287 3.50853C111.082 3.46876 110.872 3.44888 110.656 3.44888C110.122 3.44888 109.75 3.57388 109.54 3.82388C109.33 4.06819 109.224 4.41194 109.224 4.85513V18.8239H105.602Z" fill="#F8FAFC"/>
<path d="M119.548 19.0796C118.201 19.0796 117.042 18.8068 116.07 18.2614C115.104 17.7102 114.36 16.9318 113.837 15.9261C113.315 14.9148 113.053 13.7188 113.053 12.3381C113.053 10.9915 113.315 9.80967 113.837 8.79263C114.36 7.77558 115.096 6.98297 116.045 6.41478C116.999 5.8466 118.119 5.56251 119.403 5.56251C120.266 5.56251 121.07 5.70172 121.815 5.98013C122.565 6.25285 123.218 6.66478 123.775 7.21592C124.337 7.76706 124.775 8.46024 125.087 9.29547C125.4 10.125 125.556 11.0966 125.556 12.2102V13.2074H114.502V10.9574H122.138C122.138 10.4347 122.025 9.9716 121.798 9.56819C121.57 9.16478 121.255 8.84944 120.852 8.62217C120.454 8.38922 119.991 8.27274 119.462 8.27274C118.911 8.27274 118.423 8.40058 117.996 8.65626C117.576 8.90626 117.246 9.24433 117.008 9.67047C116.769 10.0909 116.647 10.5597 116.641 11.0767V13.2159C116.641 13.8636 116.761 14.4233 116.999 14.8949C117.244 15.3665 117.587 15.7301 118.031 15.9858C118.474 16.2415 118.999 16.3693 119.607 16.3693C120.011 16.3693 120.38 16.3125 120.715 16.1989C121.05 16.0852 121.337 15.9148 121.576 15.6875C121.815 15.4602 121.996 15.1818 122.121 14.8523L125.479 15.0739C125.309 15.8807 124.96 16.5852 124.431 17.1875C123.908 17.7841 123.232 18.25 122.403 18.5852C121.579 18.9148 120.627 19.0796 119.548 19.0796Z" fill="#F8FAFC"/>
<path d="M127.925 18.8239V5.73297H131.445V8.01706H131.582C131.82 7.20456 132.221 6.59092 132.783 6.17615C133.346 5.75569 133.994 5.54547 134.727 5.54547C134.908 5.54547 135.104 5.55683 135.315 5.57956C135.525 5.60228 135.71 5.63353 135.869 5.67331V8.8949C135.698 8.84376 135.462 8.79831 135.161 8.75853C134.86 8.71876 134.585 8.69888 134.335 8.69888C133.8 8.69888 133.323 8.81535 132.903 9.04831C132.488 9.27558 132.158 9.59376 131.914 10.0029C131.675 10.4119 131.556 10.8835 131.556 11.4176V18.8239H127.925Z" fill="#F8FAFC"/>
<path d="M148.638 9.46592L145.314 9.67047C145.257 9.38638 145.135 9.13069 144.947 8.90342C144.76 8.67047 144.513 8.48581 144.206 8.34944C143.905 8.2074 143.544 8.13638 143.124 8.13638C142.561 8.13638 142.087 8.25569 141.7 8.49433C141.314 8.72728 141.121 9.03978 141.121 9.43183C141.121 9.74433 141.246 10.0085 141.496 10.2244C141.746 10.4404 142.175 10.6136 142.783 10.7443L145.152 11.2216C146.425 11.483 147.374 11.9034 147.999 12.483C148.624 13.0625 148.936 13.8239 148.936 14.7671C148.936 15.625 148.683 16.3779 148.178 17.0256C147.678 17.6733 146.99 18.179 146.115 18.5426C145.246 18.9006 144.243 19.0796 143.107 19.0796C141.374 19.0796 139.993 18.7188 138.964 17.9972C137.942 17.2699 137.342 16.2813 137.166 15.0313L140.737 14.8438C140.845 15.3722 141.107 15.7756 141.521 16.054C141.936 16.3267 142.467 16.4631 143.115 16.4631C143.751 16.4631 144.263 16.3409 144.649 16.0966C145.041 15.8466 145.24 15.5256 145.246 15.1335C145.24 14.804 145.101 14.5341 144.828 14.3239C144.555 14.108 144.135 13.9432 143.567 13.8296L141.3 13.3779C140.021 13.1222 139.07 12.679 138.445 12.0483C137.825 11.4176 137.516 10.6136 137.516 9.63638C137.516 8.79547 137.743 8.07103 138.197 7.46308C138.658 6.85513 139.303 6.38638 140.132 6.05683C140.967 5.72728 141.945 5.56251 143.064 5.56251C144.717 5.56251 146.018 5.91194 146.967 6.61081C147.922 7.30967 148.479 8.26138 148.638 9.46592Z" fill="#F8FAFC"/>
<path d="M157.137 19.0796C155.813 19.0796 154.668 18.7983 153.702 18.2358C152.742 17.6676 152.001 16.8779 151.478 15.8665C150.955 14.8494 150.694 13.6705 150.694 12.3296C150.694 10.9773 150.955 9.79547 151.478 8.7841C152.001 7.76706 152.742 6.97728 153.702 6.41478C154.668 5.8466 155.813 5.56251 157.137 5.56251C158.461 5.56251 159.603 5.8466 160.563 6.41478C161.529 6.97728 162.273 7.76706 162.796 8.7841C163.319 9.79547 163.58 10.9773 163.58 12.3296C163.58 13.6705 163.319 14.8494 162.796 15.8665C162.273 16.8779 161.529 17.6676 160.563 18.2358C159.603 18.7983 158.461 19.0796 157.137 19.0796ZM157.154 16.2671C157.756 16.2671 158.259 16.0966 158.663 15.7557C159.066 15.4091 159.37 14.9375 159.575 14.3409C159.785 13.7443 159.89 13.0654 159.89 12.304C159.89 11.5426 159.785 10.8636 159.575 10.2671C159.37 9.67047 159.066 9.19888 158.663 8.85228C158.259 8.50569 157.756 8.3324 157.154 8.3324C156.546 8.3324 156.035 8.50569 155.62 8.85228C155.211 9.19888 154.901 9.67047 154.691 10.2671C154.487 10.8636 154.384 11.5426 154.384 12.304C154.384 13.0654 154.487 13.7443 154.691 14.3409C154.901 14.9375 155.211 15.4091 155.62 15.7557C156.035 16.0966 156.546 16.2671 157.154 16.2671Z" fill="#F8FAFC"/>
<path d="M169.572 11.2557V18.8239H165.941V5.73297H169.401V8.04263H169.555C169.844 7.28126 170.33 6.67899 171.012 6.23581C171.694 5.78694 172.521 5.56251 173.492 5.56251C174.401 5.56251 175.194 5.76138 175.87 6.1591C176.546 6.55683 177.072 7.12501 177.447 7.86365C177.822 8.5966 178.009 9.4716 178.009 10.4886V18.8239H174.379V11.1364C174.384 10.3352 174.18 9.71024 173.765 9.26138C173.35 8.80683 172.779 8.57956 172.052 8.57956C171.563 8.57956 171.131 8.68467 170.756 8.8949C170.387 9.10513 170.097 9.41194 169.887 9.81535C169.683 10.2131 169.577 10.6932 169.572 11.2557Z" fill="#F8FAFC"/>
<path d="M201.894 7.48013H198.161C198.093 6.99717 197.954 6.56819 197.744 6.19319C197.533 5.81251 197.263 5.48865 196.934 5.2216C196.604 4.95456 196.224 4.75001 195.792 4.60797C195.366 4.46592 194.903 4.3949 194.403 4.3949C193.499 4.3949 192.712 4.61933 192.042 5.06819C191.371 5.51138 190.852 6.1591 190.482 7.01138C190.113 7.85797 189.928 8.88638 189.928 10.0966C189.928 11.3409 190.113 12.3864 190.482 13.233C190.857 14.0796 191.38 14.7188 192.05 15.1506C192.721 15.5824 193.496 15.7983 194.377 15.7983C194.871 15.7983 195.329 15.733 195.749 15.6023C196.175 15.4716 196.553 15.2813 196.883 15.0313C197.212 14.7756 197.485 14.4659 197.701 14.1023C197.923 13.7386 198.076 13.3239 198.161 12.858L201.894 12.875C201.798 13.6761 201.556 14.4489 201.17 15.1932C200.789 15.9318 200.275 16.5938 199.627 17.179C198.985 17.7585 198.218 18.2188 197.326 18.5597C196.44 18.8949 195.437 19.0625 194.317 19.0625C192.761 19.0625 191.369 18.7102 190.141 18.0057C188.92 17.3011 187.954 16.2813 187.244 14.946C186.539 13.6108 186.187 11.9943 186.187 10.0966C186.187 8.19319 186.545 6.57388 187.261 5.23865C187.977 3.90342 188.948 2.88638 190.175 2.18751C191.403 1.48297 192.783 1.13069 194.317 1.13069C195.329 1.13069 196.266 1.27274 197.13 1.55683C197.999 1.84092 198.769 2.25569 199.44 2.80115C200.11 3.34092 200.656 4.00285 201.076 4.78694C201.502 5.57103 201.775 6.46876 201.894 7.48013Z" fill="#F8FAFC"/>
<path d="M208.205 19.071C207.37 19.071 206.626 18.9261 205.972 18.6364C205.319 18.3409 204.802 17.9063 204.421 17.3324C204.046 16.7529 203.859 16.0313 203.859 15.1676C203.859 14.4404 203.992 13.8296 204.259 13.3352C204.526 12.8409 204.89 12.4432 205.35 12.1421C205.81 11.8409 206.333 11.6136 206.918 11.4602C207.509 11.3068 208.129 11.1989 208.776 11.1364C209.538 11.0568 210.151 10.983 210.617 10.9148C211.083 10.8409 211.421 10.733 211.631 10.5909C211.842 10.4489 211.947 10.2386 211.947 9.96024V9.9091C211.947 9.36933 211.776 8.95172 211.435 8.65626C211.1 8.36081 210.623 8.21308 210.004 8.21308C209.35 8.21308 208.83 8.35797 208.444 8.64774C208.058 8.93183 207.802 9.28979 207.677 9.7216L204.319 9.44888C204.489 8.65342 204.825 7.96592 205.325 7.38638C205.825 6.80115 206.469 6.35228 207.259 6.03978C208.055 5.7216 208.975 5.56251 210.021 5.56251C210.748 5.56251 211.444 5.64774 212.109 5.81819C212.779 5.98865 213.373 6.25285 213.89 6.61081C214.413 6.96876 214.825 7.42899 215.126 7.99149C215.427 8.54831 215.577 9.21592 215.577 9.99433V18.8239H212.134V17.0085H212.032C211.822 17.4176 211.54 17.7784 211.188 18.0909C210.836 18.3977 210.413 18.6392 209.918 18.8154C209.424 18.9858 208.853 19.071 208.205 19.071ZM209.245 16.5654C209.779 16.5654 210.251 16.4602 210.66 16.25C211.069 16.0341 211.39 15.7443 211.623 15.3807C211.856 15.0171 211.972 14.6051 211.972 14.1449V12.7557C211.859 12.8296 211.702 12.8977 211.504 12.9602C211.31 13.0171 211.092 13.071 210.847 13.1222C210.603 13.1676 210.359 13.2102 210.114 13.25C209.87 13.2841 209.648 13.3154 209.45 13.3438C209.023 13.4063 208.651 13.5057 208.333 13.6421C208.015 13.7784 207.768 13.9631 207.592 14.196C207.415 14.4233 207.327 14.7074 207.327 15.0483C207.327 15.5426 207.506 15.9205 207.864 16.1818C208.228 16.4375 208.688 16.5654 209.245 16.5654Z" fill="#F8FAFC"/>
<path d="M218.462 18.8239V1.36933H222.093V7.93183H222.204C222.363 7.57956 222.593 7.2216 222.894 6.85797C223.201 6.48865 223.599 6.18183 224.087 5.93751C224.582 5.68751 225.195 5.56251 225.928 5.56251C226.883 5.56251 227.763 5.81251 228.57 6.31251C229.377 6.80683 230.022 7.55399 230.505 8.55399C230.988 9.54831 231.229 10.7955 231.229 12.2955C231.229 13.7557 230.994 14.9886 230.522 15.9943C230.056 16.9943 229.42 17.7529 228.613 18.2699C227.812 18.7813 226.914 19.0369 225.92 19.0369C225.215 19.0369 224.616 18.9205 224.121 18.6875C223.633 18.4546 223.232 18.1619 222.92 17.8097C222.607 17.4517 222.369 17.0909 222.204 16.7273H222.042V18.8239H218.462ZM222.016 12.2784C222.016 13.0568 222.124 13.7358 222.34 14.3154C222.556 14.8949 222.869 15.3466 223.278 15.6705C223.687 15.9886 224.184 16.1477 224.769 16.1477C225.36 16.1477 225.86 15.9858 226.269 15.6619C226.678 15.3324 226.988 14.8779 227.198 14.2983C227.414 13.7131 227.522 13.0398 227.522 12.2784C227.522 11.5227 227.417 10.858 227.207 10.2841C226.996 9.71024 226.687 9.26138 226.278 8.93751C225.869 8.61365 225.366 8.45172 224.769 8.45172C224.178 8.45172 223.678 8.60797 223.269 8.92047C222.866 9.23297 222.556 9.67615 222.34 10.25C222.124 10.8239 222.016 11.5 222.016 12.2784Z" fill="#F8FAFC"/>
<path d="M233.652 18.8239V5.73297H237.172V8.01706H237.308C237.547 7.20456 237.947 6.59092 238.51 6.17615C239.072 5.75569 239.72 5.54547 240.453 5.54547C240.635 5.54547 240.831 5.55683 241.041 5.57956C241.251 5.60228 241.436 5.63353 241.595 5.67331V8.8949C241.425 8.84376 241.189 8.79831 240.888 8.75853C240.587 8.71876 240.311 8.69888 240.061 8.69888C239.527 8.69888 239.05 8.81535 238.629 9.04831C238.214 9.27558 237.885 9.59376 237.641 10.0029C237.402 10.4119 237.283 10.8835 237.283 11.4176V18.8239H233.652Z" fill="#F8FAFC"/>
<path d="M246.83 19.071C245.995 19.071 245.251 18.9261 244.597 18.6364C243.944 18.3409 243.427 17.9063 243.046 17.3324C242.671 16.7529 242.484 16.0313 242.484 15.1676C242.484 14.4404 242.617 13.8296 242.884 13.3352C243.151 12.8409 243.515 12.4432 243.975 12.1421C244.435 11.8409 244.958 11.6136 245.543 11.4602C246.134 11.3068 246.754 11.1989 247.401 11.1364C248.163 11.0568 248.776 10.983 249.242 10.9148C249.708 10.8409 250.046 10.733 250.256 10.5909C250.467 10.4489 250.572 10.2386 250.572 9.96024V9.9091C250.572 9.36933 250.401 8.95172 250.06 8.65626C249.725 8.36081 249.248 8.21308 248.629 8.21308C247.975 8.21308 247.455 8.35797 247.069 8.64774C246.683 8.93183 246.427 9.28979 246.302 9.7216L242.944 9.44888C243.114 8.65342 243.45 7.96592 243.95 7.38638C244.45 6.80115 245.094 6.35228 245.884 6.03978C246.68 5.7216 247.6 5.56251 248.646 5.56251C249.373 5.56251 250.069 5.64774 250.734 5.81819C251.404 5.98865 251.998 6.25285 252.515 6.61081C253.038 6.96876 253.45 7.42899 253.751 7.99149C254.052 8.54831 254.202 9.21592 254.202 9.99433V18.8239H250.759V17.0085H250.657C250.447 17.4176 250.165 17.7784 249.813 18.0909C249.461 18.3977 249.038 18.6392 248.543 18.8154C248.049 18.9858 247.478 19.071 246.83 19.071ZM247.87 16.5654C248.404 16.5654 248.876 16.4602 249.285 16.25C249.694 16.0341 250.015 15.7443 250.248 15.3807C250.481 15.0171 250.597 14.6051 250.597 14.1449V12.7557C250.484 12.8296 250.327 12.8977 250.129 12.9602C249.935 13.0171 249.717 13.071 249.472 13.1222C249.228 13.1676 248.984 13.2102 248.739 13.25C248.495 13.2841 248.273 13.3154 248.075 13.3438C247.648 13.4063 247.276 13.5057 246.958 13.6421C246.64 13.7784 246.393 13.9631 246.217 14.196C246.04 14.4233 245.952 14.7074 245.952 15.0483C245.952 15.5426 246.131 15.9205 246.489 16.1818C246.853 16.4375 247.313 16.5654 247.87 16.5654Z" fill="#F8FAFC"/>
<path d="M260.65 1.36933V18.8239H257.019V1.36933H260.65Z" fill="#F8FAFC"/>
<path d="M276.715 0.551147L271.09 21.4489H267.962L273.587 0.551147H276.715Z" fill="#F8FAFC"/>
<path d="M291.172 13.3438L279.172 18.6279V15.1761L287.388 11.8779L287.277 12.0568V11.6307L287.388 11.8097L279.172 8.51138V5.05967L291.172 10.3438V13.3438Z" fill="#F8FAFC"/>
</svg>
